<?xml version="1.0" ?><svg viewBox="0 0 30 30" xmlns="http://www.w3.org/2000/svg"><title/><g data-name="Layer 2" id="Layer_2"><g id="Interface-Solid"><g id="work-business-solid-briefcase"><path d="M15,2a4.10036,4.10036,0,0,0-4,4.18506v.03711h8V6.18506A4.10036,4.10036,0,0,0,15,2Z" fill="none"/><path d="M26,6.22217H24V29.96289c0,.01318-.007.024-.00751.03711H26a4.00458,4.00458,0,0,0,4-4V10.22217A4.00458,4.00458,0,0,0,26,6.22217Z"/><path d="M6,6.22217H4a4.00458,4.00458,0,0,0-4,4V26a4.00458,4.00458,0,0,0,4,4H6.00751C6.007,29.98694,6,29.97607,6,29.96289Z"/><path d="M22,6.22217H21V6c0-.02106-.01074-.0387-.012-.05945A6.08837,6.08837,0,0,0,15,0,6.08837,6.08837,0,0,0,9.012,5.94055C9.01074,5.9613,9,5.97894,9,6v.22217H8V29.96289c0,.01318-.007.024-.00751.03711h14.015C22.007,29.98694,22,29.97607,22,29.96289Zm-3,0H11V6.18506A4.10036,4.10036,0,0,1,15,2a4.10036,4.10036,0,0,1,4,4.18506Z"/></g></g></g></svg>